<?xml version="1.0" encoding="utf-8"?>
<!-- Generator: Adobe Illustrator 26.3.0, SVG Export Plug-In . SVG Version: 6.00 Build 0)  -->
<svg version="1.1" id="Capa_1" xmlns="http://www.w3.org/2000/svg" xmlns:xlink="http://www.w3.org/1999/xlink" x="0px" y="0px"
	viewBox="0 0 158.9 146.9" style="enable-background:new 0 0 158.9 146.9;" xml:space="preserve">
<style type="text/css">
	.st0{fill:#FFFFFF;stroke:#FFFFFF;stroke-width:7;stroke-miterlimit:10;}
</style>
<g>
	<path class="st0" d="M58.4,74.7l5.3-4.1c0.2-0.2,0.4-0.4,0.6-0.6c2.2-2.6,16.5-19.7,19.7-30.6c0.1-0.4,0.2-0.8,0.2-1.2V20.7
		c0-1.8,0.9-3.6,2.3-4.7c2.7-2,7.5-4.2,13.5-1c0.7,0.3,1.2,0.9,1.6,1.5c1.4,2.3,5.1,8.7,7.1,17c0.5,2.2,0.6,4.4,0.2,6.7l-3.5,20.5
		c-0.1,0.4,0.3,0.9,0.7,0.9h35.7c4.2,0,7.9,2.9,8.8,7c0.2,0.9,0.3,1.9,0.3,3c0,5.6-3.2,8.1-5.3,9.2c-0.8,0.4-0.9,1.4-0.3,2.1
		c1.3,1.2,2.8,3.4,2.8,6.5c0,4-3,6.9-4.5,8.1c-0.4,0.3-0.4,0.9-0.1,1.2c0.9,1,2.2,3,2.2,6.2c0,3.8-2.8,7-4.9,8.4
		c-0.6,0.4-0.8,1.2-0.4,1.9c0.8,1.3,1.8,3.5,1.8,6.8c0,5.3-5.3,9.5-10.4,9.5h-62c-0.7,0-1.3-0.2-1.9-0.4l-8.7-4.4
		c-1.4-0.7-2.4-2.2-2.4-3.8V78.1C56.7,76.8,57.3,75.5,58.4,74.7z"/>
	<g>
		<path class="st0" d="M52.2,135.6H16c-2.5,0-4.5-2-4.5-4.5V76c0-2.5,2-4.5,4.5-4.5h36.2c2.5,0,4.5,2,4.5,4.5v55.1
			C56.7,133.6,54.7,135.6,52.2,135.6z"/>
		<path class="st0" d="M39.4,122.8c0,2.1-2.4,3.8-5.3,3.8c-2.9,0-5.3-1.7-5.3-3.8c0-2.1,2.4-3.8,5.3-3.8
			C37,119,39.4,120.7,39.4,122.8z"/>
	</g>
</g>
</svg>
