<svg width="116" height="85" viewBox="0 0 116 85" fill="none" xmlns="http://www.w3.org/2000/svg">
<rect width="116" height="85" fill="#F5F5F5"/>
<g id="LogoRed-Animation 1">
<rect width="115.8" height="84.6" fill="white"/>
<g id="spoon">
<path id="Vector" d="M19.5 25.5C19.5 20.1 16.7 15.7 13.3 15.7C9.9 15.7 7 20.1 7 25.5C7 27.6 7.1 29.9 7.9 31.7999C8.7 33.6999 10.6 34.5 11.6 36.2C12 37 12.2 37.9 12.2 38.7999C12.2 38.7999 12.5 43.5999 11.5 62.2999C11.5 62.2999 10.6 69.2999 13.2 70.5V70.5999H13.3H13.4V70.5C15.8 69.7 14.9 62.2 14.9 62.2C14 45.4 14.3 39.8 14.3 38.9C14.3 37.1 14.9 36.0999 16.1 34.7999C16.3 34.5999 16.4 34.4 16.5 34.2C18.3 33 19.5 30.3 19.5 25.5Z" fill="#F23D4C"/>
</g>
<g id="txt1">
<path id="Vector_2" d="M31.9 35.5C30.7 35.5 29.6 35.2999 28.6 34.7999C27.5 34.2999 26.6 33.6999 25.8 32.7999C25 31.9 24.3 30.9 23.9 29.7C23.4 28.5 23.2 27.1 23.2 25.5C23.2 23.9 23.4 22.5 23.9 21.3C24.4 20 25 19 25.9 18C26.7 17.1 27.7 16.4 28.8 15.9C29.9 15.4 31.1 15.2 32.4 15.2C33.4 15.2 34.2 15.3 35 15.6C35.8 15.9 36.5 16.2 37.2 16.6L37.8 15.7H38.9L39 22.6H37.9C37.8 21.9 37.5 21.2 37.2 20.4C36.9 19.6 36.6 18.9 36.2 18.4C35.8 17.8 35.2 17.3 34.6 16.9C34 16.5 33.3 16.4 32.5 16.4C31.6 16.4 30.8 16.6 30 17C29.2 17.4 28.6 18 28 18.7C27.5 19.4 27.1 20.4 26.8 21.5C26.5 22.6 26.4 23.9 26.4 25.3C26.4 26.5 26.6 27.7 26.9 28.7C27.2 29.7 27.7 30.6 28.2 31.4C28.8 32.2 29.5 32.8 30.3 33.2C31.1 33.6 32 33.9 33 33.9C33.7 33.9 34.4 33.7999 35 33.5999C35.6 33.3999 36.2 33.1 36.6 32.7C37.1 32.3 37.5 31.7999 37.8 31.2999C38.1 30.7999 38.4 30.2 38.6 29.6L39.6 30.1C38.8 32 37.8 33.4 36.5 34.2C35.2 35 33.7 35.5 31.9 35.5Z" fill="#F23D4C"/>
<path id="Vector_3" d="M54.1 28.2C54.1 29.1 53.9 30.1 53.6 31C53.3 31.9 52.9 32.7 52.3 33.3C51.7 34 50.9 34.6 50.1 34.9C49.3 35.2 48.3 35.4 47.3 35.4C46.4 35.4 45.6 35.2 44.9 34.9C44.1 34.6 43.4 34.1 42.8 33.5C42.2 32.9 41.7 32.1 41.4 31.3C41 30.4 40.9 29.4 40.9 28.3C40.9 26.2 41.5 24.5 42.7 23.1C43.9 21.8 45.5 21.1 47.5 21.1C49.4 21.1 50.9 21.7 52.2 23C53.5 24.4 54.1 26.1 54.1 28.2ZM51.3 28.2C51.3 27.5 51.2 26.8 51.1 26C51 25.2 50.8 24.6 50.5 24.1C50.2 23.5 49.8 23.1 49.4 22.7C49 22.3 48.3 22.2 47.7 22.2C47 22.2 46.4 22.4 45.9 22.7C45.4 23 45 23.5 44.7 24.1C44.4 24.7 44.2 25.3 44.1 26C44 26.7 43.9 27.4 43.9 28.1C43.9 29 44 29.8 44.1 30.5C44.2 31.2 44.5 31.9 44.8 32.5C45.1 33.1 45.5 33.5 46 33.9C46.5 34.2 47.1 34.4 47.7 34.4C48.8 34.4 49.7 33.8 50.4 32.7C50.9 31.7 51.3 30.1 51.3 28.2Z" fill="#F23D4C"/>
<path id="Vector_4" d="M62.3 35.4C60.4 35.4 58.8 34.8 57.7 33.5C56.6 32.2 56 30.4999 56 28.2999C56 27.3999 56.1 26.5 56.4 25.6C56.7 24.7 57.1 23.9999 57.7 23.4C58.2 22.8 58.9 22.1999 59.7 21.7999C60.5 21.3999 61.4 21.2 62.3 21.2C63.6 21.2 64.7 21.5 65.5 22.1C66.3 22.7 66.7 23.6 66.7 24.7C66.7 25.2 66.6 25.5999 66.4 25.9C66.2 26.3 65.8 26.4 65.3 26.4C64.8 26.4 64.3 26.3 64.1 26C63.8 25.7 63.7 25.4 63.7 25.1C63.7 24.7 63.8 24.2999 63.9 23.7999C64 23.3999 64.1 23.1 64.1 22.9C63.9 22.6 63.7 22.3999 63.4 22.2999C63.1 22.1999 62.7 22.2 62.4 22.2C62 22.2 61.5 22.3 61.2 22.5C60.8 22.7 60.4 23 60 23.5C59.7 24 59.4 24.5999 59.2 25.2999C59 26.0999 58.9 27 58.9 28.1C58.9 29.8 59.3 31.2 60 32.2C60.8 33.3 61.7 33.7999 63 33.7999C63.9 33.7999 64.6 33.6 65.2 33.2C65.8 32.8 66.3 32.0999 66.9 31.2999L67.8 31.9C67.2 33 66.4 33.8 65.4 34.5C64.3 35.1 63.3 35.4 62.3 35.4Z" fill="#F23D4C"/>
<path id="Vector_5" d="M75.2 35H68.7V34.0999C68.9 34.0999 69.1 34.1 69.3 34C69.5 33.9 69.8 34 70 34C70.3 33.9 70.4 33.7999 70.6 33.5999C70.8 33.3999 70.8 33.0999 70.8 32.7999V24.5C70.8 24.2 70.7 23.9 70.6 23.7C70.5 23.5 70.3 23.3 70 23.1C69.8 23 69.6 22.9 69.2 22.8C68.9 22.7 68.6 22.7 68.3 22.7V21.8L73.1 21.5L73.3 21.7V32.7C73.3 33 73.4 33.2999 73.5 33.5C73.6 33.7 73.8 33.9 74.1 34C74.3 34.1 74.5 34.1 74.7 34.2C74.9 34.3 75.1 34.2999 75.3 34.2999V35H75.2ZM73.5 16.1C73.5 16.6 73.3 17.1 73 17.5C72.7 17.9 72.3 18 71.8 18C71.3 18 70.9 17.8 70.6 17.4C70.3 17 70.1 16.6 70.1 16.1C70.1 15.6 70.3 15.2 70.6 14.8C70.9 14.4 71.3 14.2 71.8 14.2C72.3 14.2 72.7 14.4 73.1 14.7C73.4 15.2 73.5 15.6 73.5 16.1Z" fill="#F23D4C"/>
<path id="Vector_6" d="M91.8 34.9999H85.2V34.0999C85.4 34.0999 85.6 34.0999 85.9 33.9999C86.1 33.9999 86.4 33.8999 86.5 33.8999C86.8 33.7999 86.9 33.6999 87.1 33.4999C87.2 33.2999 87.3 32.9999 87.3 32.6999V25.7999C87.3 24.7999 87.1 24.0999 86.6 23.5999C86.1 23.0999 85.6 22.7999 85 22.7999C84.5 22.7999 84.1 22.8999 83.7 22.9999C83.3 23.0999 82.9 23.2999 82.6 23.5999C82.3 23.7999 82.1 23.9999 81.9 24.2999C81.7 24.4999 81.6 24.6999 81.5 24.8999V32.5999C81.5 32.8999 81.6 33.1999 81.7 33.3999C81.8 33.5999 82 33.7999 82.3 33.8999C82.5 33.9999 82.7 34.0999 82.9 34.0999C83.1 34.0999 83.4 34.1999 83.6 34.1999V34.9999H77V34.0999C77.2 34.0999 77.4 34.0999 77.6 33.9999C77.8 33.9999 78 33.8999 78.2 33.8999C78.5 33.7999 78.6 33.6999 78.8 33.4999C79 33.2999 79 32.9999 79 32.6999V24.3999C79 24.0999 78.9 23.7999 78.8 23.4999C78.7 23.1999 78.5 22.9999 78.2 22.8999C78 22.7999 77.8 22.6999 77.6 22.6999C77.4 22.6999 77.1 22.5999 76.8 22.5999V21.6999L81.3 21.3999L81.5 21.5999V23.4999H81.6C81.8 23.2999 82.1 22.9999 82.4 22.6999C82.7 22.3999 83 22.0999 83.3 21.9999C83.6 21.7999 84 21.5999 84.5 21.4999C85 21.3999 85.5 21.2999 86.1 21.2999C87.4 21.2999 88.3 21.6999 89 22.4999C89.6 23.2999 89.9 24.3999 89.9 25.6999V32.6999C89.9 32.9999 90 33.2999 90.1 33.4999C90.2 33.6999 90.4 33.7999 90.7 33.9999C90.9 34.0999 91.1 34.1999 91.3 34.1999C91.5 34.1999 91.7 34.2999 92 34.2999V34.9999H91.8Z" fill="#F23D4C"/>
<path id="Vector_7" d="M106.2 34.8C105.8 35 105.4 35.1 105.1 35.2C104.8 35.3 104.4 35.3 104 35.3C103.3 35.3 102.7 35.1 102.3 34.8C101.9 34.5 101.6 34 101.5 33.3H101.4C100.8 34 100.2 34.5 99.5 34.8C98.8 35.1 98 35.3 97 35.3C96 35.3 95.2 35 94.5 34.4C93.8 33.8 93.5 33 93.5 32C93.5 31.5 93.6 31 93.7 30.6C93.8 30.2 94.1 29.8 94.4 29.5C94.6 29.2 94.9 29 95.3 28.8C95.7 28.6 96 28.4 96.4 28.3C96.8 28.1 97.6 27.9 98.9 27.4C100.2 27 101 26.7 101.4 26.4V25C101.4 24.9 101.4 24.7 101.3 24.3C101.3 24 101.1 23.6 101 23.3C100.8 23 100.6 22.7 100.2 22.4C99.9 22.2 99.4 22 98.8 22C98.4 22 98 22.1 97.6 22.2C97.2 22.3 97 22.5 96.8 22.6C96.8 22.8 96.8 23.1 96.9 23.4C97 23.7 97 24.1 97 24.4C97 24.7 96.9 25 96.6 25.3C96.3 25.6 95.9 25.7 95.4 25.7C94.9 25.7 94.6 25.5 94.4 25.2C94.2 24.9 94.1 24.5 94.1 24.1C94.1 23.7 94.2 23.3 94.5 22.9C94.8 22.5 95.2 22.2 95.7 21.9C96.1 21.6 96.6 21.4 97.2 21.3C97.8 21.1 98.4 21 98.9 21C99.7 21 100.3 21.1 100.9 21.2C101.5 21.3 102 21.5 102.4 21.9C102.9 22.2 103.2 22.7 103.5 23.3C103.7 23.9 103.9 24.6 103.9 25.5C103.9 26.8 103.9 28 103.9 29C103.9 30 103.9 31.1 103.9 32.3C103.9 32.7 104 32.9 104.1 33.1C104.2 33.3 104.4 33.5 104.7 33.6C104.8 33.7 105.1 33.7 105.3 33.7C105.6 33.7 105.9 33.7 106.2 33.7V34.8ZM101.4 27.6C100.6 27.8 99.9 28.1 99.4 28.3C98.8 28.5 98.3 28.8 97.8 29.1C97.3 29.4 97 29.8 96.7 30.2C96.4 30.6 96.3 31.1 96.3 31.7C96.3 32.5 96.5 33 96.9 33.4C97.3 33.8 97.8 33.9 98.4 33.9C99 33.9 99.6 33.7 100.1 33.4C100.6 33.1 101 32.7 101.3 32.3L101.4 27.6Z" fill="#F23D4C"/>
</g>
<g id="txt2">
<path id="Vector_8" d="M45.5 51.7999H44.3C44.2 51.3999 44 50.8999 43.7 50.2999C43.4 49.6999 43.1 49.0999 42.7 48.5999C42.3 47.9999 41.9 47.5999 41.5 47.0999C41.1 46.6999 40.7 46.4 40.3 46.4C39.9 46.4 39.5 46.2999 38.9 46.2999C38.3 46.2999 37.8 46.2999 37.3 46.2999H36.2V66.8C36.2 67.2 36.3 67.6 36.5 67.9C36.7 68.2 37 68.4999 37.4 68.6999C37.6 68.7999 38.1 68.9 38.8 69C39.5 69.1 40 69.1999 40.4 69.1999V70.5H28.3V69.1999C28.6 69.1999 29.2 69.0999 29.8 69.0999C30.5 68.9999 31 68.9 31.2 68.8C31.6 68.6 31.9 68.3999 32.1 68.0999C32.3 67.7999 32.4 67.4 32.4 66.9V46.2H31.4C31 46.2 30.6 46.2 30 46.2C29.4 46.2 28.9 46.2999 28.4 46.2999C28 46.2999 27.6 46.6 27.2 47C26.8 47.4 26.4 47.9 26 48.5C25.6 49 25.3 49.6 25 50.2C24.7 50.8 24.5 51.3 24.4 51.7H23.1V44.7H45.5V51.7999Z" fill="#F23D4C"/>
<path id="Vector_9" d="M64.5 61.4C64.5 62.7 64.3 63.9 63.9 65.1C63.5 66.3 62.9 67.3 62.2 68.2C61.4 69.2 60.4 69.9 59.3 70.4C58.2 70.8 57 71 55.6 71C54.5 71 53.4 70.8 52.4 70.4C51.4 70 50.5 69.3 49.7 68.5C48.9 67.7 48.3 66.7 47.8 65.5C47.3 64.3 47.1 63 47.1 61.6C47.1 58.8 47.9 56.5 49.5 54.8C51.1 53 53.3 52.1 55.9 52.1C58.4 52.1 60.5 52.9 62.1 54.6C63.7 56.4 64.5 58.6 64.5 61.4ZM60.7 61.4C60.7 60.5 60.6 59.5 60.4 58.5C60.2 57.5 59.9 56.6 59.6 55.9C59.2 55.2 58.7 54.6 58.1 54.1C57.5 53.6 56.7 53.4 55.8 53.4C54.9 53.4 54.1 53.6 53.4 54.1C52.7 54.6 52.2 55.2 51.8 56C51.4 56.7 51.1 57.6 51 58.5C50.8 59.4 50.8 60.3 50.8 61.2C50.8 62.4 50.9 63.4 51.1 64.4C51.3 65.4 51.6 66.3 52 67C52.4 67.8 52.9 68.4 53.5 68.8C54.1 69.2 54.9 69.5 55.8 69.5C57.3 69.5 58.5 68.8 59.4 67.3C60.3 66 60.7 64 60.7 61.4Z" fill="#F23D4C"/>
<path id="Vector_10" d="M86.6 70.2L80.4 70.6L80.1 70.3V68.6H80C79.4 69.3 78.6 69.9 77.7 70.3C76.8 70.7 75.8 71 74.9 71C73.9 71 72.9 70.8 72 70.3C71.1 69.8 70.2 69.2 69.5 68.4C68.8 67.6 68.2 66.6 67.8 65.4C67.4 64.2 67.2 62.9 67.2 61.5C67.2 60.2 67.4 59 67.9 57.8C68.3 56.6 69 55.6 69.7 54.8C70.4 54 71.3 53.3 72.4 52.9C73.5 52.5 74.6 52.2 75.7 52.2C76.5 52.2 77.3 52.3 78.1 52.5C78.9 52.7 79.6 53 80.2 53.3V47.1C80.2 46.6 80.1 46.1 79.9 45.7C79.7 45.3 79.5 45 79.2 44.7C78.9 44.5 78.4 44.3 77.8 44.2C77.2 44.1 76.6 44 75.9 44V42.9L83.2 42.5L83.5 42.8V66.8C83.5 67.2 83.6 67.6 83.7 67.9C83.9 68.2 84.1 68.4 84.4 68.7C84.6 68.8 85 68.9 85.4 69C85.8 69 86.2 69.1 86.6 69.1V70.2ZM80 67V56.6C79.9 56.3 79.7 55.9 79.5 55.6C79.3 55.2 79 54.9 78.7 54.6C78.4 54.3 77.9 54 77.5 53.8C77 53.6 76.5 53.5 75.9 53.5C75.2 53.5 74.5 53.7 73.9 54.1C73.3 54.5 72.8 55 72.3 55.7C71.9 56.4 71.5 57.2 71.2 58.3C70.9 59.4 70.8 60.5 70.8 61.8C70.8 62.8 70.9 63.7 71.1 64.6C71.3 65.4 71.6 66.2 72.1 66.9C72.5 67.6 73.1 68.1 73.7 68.5C74.4 68.9 75.1 69.1 76 69.1C77 69.1 77.8 68.9 78.4 68.5C79 68.1 79.6 67.5 80 67Z" fill="#F23D4C"/>
<path id="Vector_11" d="M105.7 61.4C105.7 62.7 105.5 63.8999 105.1 65.0999C104.7 66.2999 104.1 67.2999 103.4 68.1999C102.6 69.1999 101.6 69.9 100.5 70.4C99.4 70.9 98.2 71.0999 96.8 71.0999C95.7 71.0999 94.6 70.9 93.6 70.5C92.6 70.1 91.7 69.3999 90.9 68.5999C90.1 67.7999 89.5 66.7999 89 65.5999C88.5 64.3999 88.3 63.1 88.3 61.7C88.3 58.9 89.1 56.6 90.7 54.9C92.3 53.1 94.5 52.2 97.1 52.2C99.6 52.2 101.7 53 103.3 54.7C104.9 56.4 105.7 58.6 105.7 61.4ZM102 61.4C102 60.5 101.9 59.5 101.7 58.5C101.5 57.5 101.2 56.6 100.9 55.9C100.5 55.2 100 54.5999 99.4 54.0999C98.8 53.5999 98 53.4 97.1 53.4C96.2 53.4 95.4 53.5999 94.7 54.0999C94 54.5999 93.5 55.2 93.1 56C92.7 56.7 92.4 57.6 92.3 58.5C92.1 59.4 92.1 60.3 92.1 61.2C92.1 62.4 92.2 63.4 92.4 64.4C92.6 65.4 92.9 66.3 93.3 67C93.7 67.8 94.2 68.4 94.8 68.8C95.4 69.2 96.2 69.5 97.1 69.5C98.6 69.5 99.8 68.8 100.7 67.3C101.5 66 102 64 102 61.4Z" fill="#F23D4C"/>
</g>
</g>
</svg>
