<?xml version="1.0" encoding="utf-8"?>
<!-- Generator: Adobe Illustrator 26.3.0, SVG Export Plug-In . SVG Version: 6.00 Build 0)  -->
<svg version="1.1" id="Capa_1" xmlns="http://www.w3.org/2000/svg" xmlns:xlink="http://www.w3.org/1999/xlink" x="0px" y="0px"
	 viewBox="0 0 50.9 51" style="enable-background:new 0 0 50.9 51;" xml:space="preserve">
<style type="text/css">
	.st0{clip-path:url(#SVGID_00000012445122298182974130000015112925920304236440_);}
	.st1{fill:#020304;}
	.st2{fill:#FFFFFF;}
</style>
<g>
	<defs>
		<rect id="SVGID_1_" x="0.5" y="0.6" width="50" height="50"/>
	</defs>
	<clipPath id="SVGID_00000157292752394688670630000004716241937652794276_">
		<use xlink:href="#SVGID_1_"  style="overflow:visible;"/>
	</clipPath>
	<g style="clip-path:url(#SVGID_00000157292752394688670630000004716241937652794276_);">
		<path class="st1" d="M25.5,50.6c13.8,0,25-11.2,25-25s-11.2-25-25-25s-25,11.2-25,25S11.7,50.6,25.5,50.6z"/>
		<path class="st2" d="M41.5,17.6c-0.2-0.7-0.6-1.4-1.1-1.9c-0.5-0.5-1.2-0.9-1.9-1.1C36,14,25.5,14,25.5,14s-10.4,0-13,0.7
			c-0.7,0.2-1.4,0.6-1.9,1.1c-0.5,0.5-0.9,1.2-1.1,1.9c-0.7,2.6-0.7,8-0.7,8s0,5.4,0.7,8c0.2,0.7,0.6,1.4,1.1,1.9
			c0.5,0.5,1.2,0.9,1.9,1.1c2.6,0.7,13,0.7,13,0.7s10.4,0,13-0.7c0.7-0.2,1.4-0.6,1.9-1.1c0.5-0.5,0.9-1.2,1.1-1.9
			c0.7-2.6,0.7-8,0.7-8S42.2,20.2,41.5,17.6z M22.2,30.6v-10l8.7,5L22.2,30.6z"/>
	</g>
</g>
</svg>
