<?xml version="1.0" encoding="utf-8"?>
<!-- Generator: Adobe Illustrator 26.3.0, SVG Export Plug-In . SVG Version: 6.00 Build 0)  -->
<svg version="1.1" id="Capa_1" xmlns="http://www.w3.org/2000/svg" xmlns:xlink="http://www.w3.org/1999/xlink" x="0px" y="0px"
	 viewBox="0 0 50.9 51" style="enable-background:new 0 0 50.9 51;" xml:space="preserve">
<style type="text/css">
	.st0{clip-path:url(#SVGID_00000180361607183138210280000007655877150988614847_);}
	.st1{fill:#020304;}
	.st2{fill:#FFFFFF;}
</style>
<g>
	<defs>
		<rect id="SVGID_1_" x="0.3" y="0.4" width="50" height="50"/>
	</defs>
	<clipPath id="SVGID_00000145767717485421605330000002615217768196820869_">
		<use xlink:href="#SVGID_1_"  style="overflow:visible;"/>
	</clipPath>
	<g style="clip-path:url(#SVGID_00000145767717485421605330000002615217768196820869_);">
		<path class="st1" d="M25.3,50.4c13.8,0,25-11.2,25-25s-11.2-25-25-25s-25,11.2-25,25S11.5,50.4,25.3,50.4z"/>
		<path class="st2" d="M25.3,12.5c4.2,0,4.7,0,6.4,0.1c1,0,2,0.2,2.9,0.5c0.7,0.3,1.3,0.7,1.8,1.2c0.5,0.5,0.9,1.1,1.2,1.8
			c0.3,0.9,0.5,1.9,0.5,2.9c0.1,1.7,0.1,2.2,0.1,6.4s0,4.7-0.1,6.4c0,1-0.2,2-0.5,2.9c-0.3,0.7-0.7,1.3-1.2,1.8
			c-0.5,0.5-1.1,0.9-1.8,1.2c-0.9,0.3-1.9,0.5-2.9,0.5c-1.7,0.1-2.2,0.1-6.4,0.1s-4.7,0-6.4-0.1c-1,0-2-0.2-2.9-0.5
			c-0.7-0.3-1.3-0.7-1.8-1.2c-0.5-0.5-0.9-1.1-1.2-1.8c-0.3-0.9-0.5-1.9-0.5-2.9c-0.1-1.7-0.1-2.2-0.1-6.4s0-4.7,0.1-6.4
			c0-1,0.2-2,0.5-2.9c0.3-0.7,0.7-1.3,1.2-1.8s1.1-0.9,1.8-1.2c0.9-0.3,1.9-0.5,2.9-0.5C20.6,12.6,21.1,12.5,25.3,12.5z M25.3,9.7
			c-4.3,0-4.8,0-6.5,0.1c-1.3,0-2.6,0.3-3.8,0.7c-1,0.4-2,1-2.8,1.8c-0.8,0.8-1.4,1.7-1.8,2.8C10,16.4,9.7,17.7,9.7,19
			c-0.1,1.7-0.1,2.2-0.1,6.5c0,4.3,0,4.8,0.1,6.5c0,1.3,0.3,2.6,0.7,3.8c0.4,1,1,2,1.8,2.8c0.8,0.8,1.7,1.4,2.8,1.8
			c1.2,0.5,2.5,0.7,3.8,0.7c1.7,0.1,2.2,0.1,6.5,0.1c4.3,0,4.8,0,6.5-0.1c1.3,0,2.6-0.3,3.8-0.7c1-0.4,2-1,2.8-1.8
			c0.8-0.8,1.4-1.7,1.8-2.8c0.5-1.2,0.7-2.5,0.7-3.8c0.1-1.7,0.1-2.2,0.1-6.5c0-4.3,0-4.8-0.1-6.5c0-1.3-0.3-2.6-0.7-3.8
			c-0.4-1-1-2-1.8-2.8c-0.8-0.8-1.7-1.4-2.8-1.8c-1.2-0.5-2.5-0.7-3.8-0.7C30.2,9.7,29.6,9.7,25.3,9.7z"/>
		<path class="st2" d="M25.3,17.4c-1.6,0-3.2,0.5-4.5,1.4c-1.3,0.9-2.4,2.2-3,3.6c-0.6,1.5-0.8,3.1-0.5,4.7c0.3,1.6,1.1,3,2.2,4.1
			c1.1,1.1,2.6,1.9,4.1,2.2c1.6,0.3,3.2,0.2,4.7-0.5c1.5-0.6,2.7-1.6,3.6-3c0.9-1.3,1.4-2.9,1.4-4.5c0-2.1-0.9-4.2-2.4-5.7
			C29.5,18.2,27.5,17.4,25.3,17.4z M25.3,30.7c-1,0-2.1-0.3-2.9-0.9c-0.9-0.6-1.5-1.4-1.9-2.4c-0.4-1-0.5-2-0.3-3
			c0.2-1,0.7-2,1.4-2.7c0.7-0.7,1.7-1.2,2.7-1.4c1-0.2,2.1-0.1,3,0.3c1,0.4,1.8,1.1,2.4,1.9c0.6,0.9,0.9,1.9,0.9,2.9
			c0,1.4-0.6,2.7-1.5,3.7S26.7,30.7,25.3,30.7L25.3,30.7z"/>
		<path class="st2" d="M33.8,18.9c1,0,1.9-0.8,1.9-1.9c0-1-0.8-1.9-1.9-1.9c-1,0-1.9,0.8-1.9,1.9C31.9,18.1,32.7,18.9,33.8,18.9z"/>
	</g>
</g>
</svg>
