<?xml version="1.0" encoding="utf-8"?>
<!-- Generator: Adobe Illustrator 26.3.0, SVG Export Plug-In . SVG Version: 6.00 Build 0)  -->
<svg version="1.1" id="Capa_1" xmlns="http://www.w3.org/2000/svg" xmlns:xlink="http://www.w3.org/1999/xlink" x="0px" y="0px"
	 viewBox="0 0 50.9 51" style="enable-background:new 0 0 50.9 51;" xml:space="preserve">
<style type="text/css">
	.st0{fill:#020304;}
	.st1{fill:#FFFFFF;}
</style>
<path class="st0" d="M50.3,25.4c0-4.8-1.4-9.5-3.9-13.5c-2.6-4-6.3-7.2-10.6-9.2c-4.3-2-9.2-2.7-13.9-2.1C17.1,1.3,12.7,3.3,9,6.4
	c-3.6,3.1-6.3,7.2-7.7,11.8c-1.4,4.6-1.4,9.4-0.1,14S5.1,41,8.7,44.1c3.6,3.2,8,5.3,12.7,6V32.7H15v-7.2h6.4v-5.5
	c0-6.3,3.7-9.7,9.4-9.7c1.9,0,3.7,0.2,5.6,0.5v6.2h-3.2c-3.1,0-4.1,1.9-4.1,3.9v4.7h6.9L35,32.7h-5.8v17.5
	c5.9-0.9,11.2-3.9,15.1-8.5C48.1,37.1,50.3,31.4,50.3,25.4z"/>
<path class="st1" d="M35,32.7l1.1-7.2h-6.9v-4.7c0-2,1-3.9,4.1-3.9h3.2v-6.2c-1.9-0.3-3.7-0.5-5.6-0.5c-5.7,0-9.4,3.5-9.4,9.7v5.5
	H15v7.2h6.4v17.5c2.6,0.4,5.2,0.4,7.8,0V32.7H35z"/>
</svg>
