<svg width="100px" xmlns="http://www.w3.org/2000/svg" viewBox="0 0 205.39 144.5"><defs><style>.cls-1,.cls-2,.cls-3{fill:rgba(242, 61, 76, 1);}.cls-2{font-size:57.43px;}.cls-2,.cls-3{font-family:Georgia;}.cls-3{font-size:76.07px;}</style></defs><g id="Capa_1" data-name="Capa 1"><path class="cls-1" d="M25.62,29c0-11.15-5.74-20.19-12.81-20.19S0,17.89,0,29C0,33.32.24,37.94,1.86,42s5.63,5.54,7.66,9a10.94,10.94,0,0,1,1.29,5.3h0s.55,9.87-1.5,48.33c0,0-1.85,14.31,3.5,16.81v.11l.22,0,.22,0v-.11c5-1.63,3.14-17,3.14-17C14.59,69.9,15.1,58.36,15.21,56.56h0c0-3.7,1.25-5.79,3.67-8.38a9.48,9.48,0,0,0,.9-1.13C23.31,44.36,25.62,38.88,25.62,29Z"/></g><g id="Capa_2" data-name="Capa 2"><text class="cls-2" transform="translate(30.88 48.61)">Cocina</text><text class="cls-3" transform="translate(32.64 121.43)">Todo</text></g></svg>