<?xml version="1.0" encoding="utf-8"?>
<!-- Generator: Adobe Illustrator 26.3.0, SVG Export Plug-In . SVG Version: 6.00 Build 0)  -->
<svg version="1.1" id="Capa_1" xmlns="http://www.w3.org/2000/svg" xmlns:xlink="http://www.w3.org/1999/xlink" x="0px" y="0px"
	 viewBox="0 0 71 63.7" style="enable-background:new 0 0 71 63.7;" xml:space="preserve">
<style type="text/css">
	.st0{fill:#010202;}
</style>
<g>
	<g>
		<g>
			<path class="st0" d="M64.1,55.6l-16-16c-0.5-0.5-1.1-0.7-1.7-0.7c-0.6,0-1.2,0.2-1.7,0.7l-2.2,2.2c-0.4,0.4-0.7,1-0.7,1.7
				c0,0.6,0.2,1.2,0.7,1.7l16,16c0.6,0.6,1.4,0.9,2.2,0.9c1,0,2.1-0.5,3-1.3c0.8-0.8,1.3-1.9,1.3-2.9C65,57,64.6,56.2,64.1,55.6z
				 M62,59.1c-0.4,0.4-0.9,0.6-1.3,0.6c-0.2,0-0.4-0.1-0.5-0.2l-16-16l2.2-2.2l16,16C62.8,57.7,62.6,58.5,62,59.1z"/>
		</g>
	</g>
	<g>
		<path class="st0" d="M28.5,49.1c-6.3,0-12.2-2.4-16.6-6.9c-9.2-9.2-9.2-24,0-33.2c4.4-4.4,10.3-6.9,16.6-6.9
			c6.3,0,12.2,2.4,16.6,6.9c9.2,9.2,9.2,24,0,33.2C40.7,46.7,34.8,49.1,28.5,49.1z M28.5,4.6c-5.6,0-10.9,2.2-14.9,6.2
			c-8.2,8.2-8.2,21.6,0,29.8c4,4,9.3,6.2,14.9,6.2c5.6,0,10.9-2.2,14.9-6.2c8.2-8.2,8.2-21.6,0-29.8C39.5,6.8,34.2,4.6,28.5,4.6z"/>
	</g>
	<g>
		<path class="st0" d="M28.5,43.3c-4.7,0-9.1-1.8-12.5-5.2c-6.9-6.9-6.9-18.1,0-24.9C19.4,9.9,23.8,8,28.5,8s9.1,1.8,12.5,5.2
			c6.9,6.9,6.9,18.1,0,24.9C37.7,41.5,33.2,43.3,28.5,43.3z M28.5,10.4c-4.1,0-7.9,1.6-10.8,4.5c-5.9,5.9-5.9,15.6,0,21.6
			c2.9,2.9,6.7,4.5,10.8,4.5s7.9-1.6,10.8-4.5c5.9-5.9,5.9-15.6,0-21.6C36.4,12,32.6,10.4,28.5,10.4z"/>
	</g>
</g>
<g>
	<g>
		<path class="st0" d="M9.1,14.1c-1.1,3.2-1.5,6.6-1.8,10c-0.2,1.6-0.3,3.2,0,4.8c0.3,1.5,0.8,2.9,1.4,4.2c1.1,2.7,2.4,5.5,4.5,7.6
			c2.3,2.3,5.5,3.5,8.5,4.8c0.4-1.6,0.8-3.1,1.3-4.7c-1.3-0.1-2.5-0.3-3.8-0.4c-2.8-0.3-3.4,4.4-0.7,4.9c4.6,0.9,9.4,2.5,14.2,1.6
			c4-0.8,8.3-2.9,11.2-5.8c3.1-3,4.9-7.4,6-11.5c0.6-2.3,0.8-4.7,0.4-7.1c-0.4-2.1-1.3-4.1-2.3-6c-1.1-2-2.2-4.1-3.9-5.7
			c-0.8-0.8-1.7-1.4-2.6-1.9c-0.7-0.4-1.3-0.6-1.6-1.3c-0.7,1.3-1.4,2.5-2.2,3.8c0.5,0,0.3-0.1,0.7,0.2c0.8-1.4,1.7-2.9,2.5-4.3
			C37.8,6,34.9,5,31.9,4.5c-3.1-0.5-6.4-0.9-9.4-0.3c-2.7,0.6-5,2.2-7.1,3.9c-2.3,1.8-4.4,3.7-5.4,6.5c-0.5,1.3,0.5,2.7,1.7,3.1
			c1.4,0.4,2.6-0.5,3.1-1.7c0.6-1.7,2.3-2.9,3.8-4c1.7-1.3,3.4-2.6,5.5-2.9c2.3-0.3,4.9,0,7.2,0.5c2.4,0.5,4.7,1.1,6.9,2.1
			c3,1.3,5.1-2.4,2.5-4.3c-0.9-0.7-2.1-1-3.2-0.9c-2,0.2-3,2-2.2,3.8c0.7,1.5,2.1,2.4,3.4,3.1c1.4,0.8,2.4,1.8,3.2,3.1
			c1.9,3,3.7,6.3,3.4,9.9c-0.3,3.4-1.9,7.4-4,10.1c-2,2.6-5.3,4.4-8.4,5.3c-4.4,1.4-8.9-0.2-13.3-1.1c-0.2,1.6-0.4,3.3-0.7,4.9
			c1.3,0.1,2.5,0.3,3.8,0.4c2.4,0.2,3.5-3.6,1.3-4.7c-2.3-1.1-5.3-2-7.2-3.8c-1.7-1.6-2.8-3.8-3.6-6c-0.4-1.2-1-2.4-1.2-3.7
			c-0.2-1.3,0-2.7,0.2-3.9c0.3-2.9,0.7-5.7,1.6-8.4C14.9,12.4,10.1,11.1,9.1,14.1L9.1,14.1z"/>
	</g>
</g>
<g>
	<g>
		<path class="st0" d="M42.7,43.2c0.5,0.9,1.3,1.6,2.2,2.1c0.3,0.2,0.6,0.3,0.9,0.5c0.1,0,0.5,0.4,0.3,0.2c-0.3-0.2,0.2,0.2,0.2,0.2
			c-0.3-0.3,0.1,0.2,0.1,0.3c0.1,0.2,0.2,0.4,0.3,0.5c0.2,0.4,0.4,0.8,0.7,1.2c0.6,0.9,1.4,1.5,2.2,2.3c3.2,2.9,6.1,6,9.5,8.8
			c1,0.9,2.5,1,3.5,0c0.9-0.9,1-2.7,0-3.5c-3.3-2.7-6.2-5.7-9.2-8.6c-0.3-0.3-0.7-0.6-1.1-1c-0.2-0.1-0.3-0.3-0.5-0.4
			c0,0-0.4-0.5-0.3-0.3c-0.3-0.4-0.7-1.4-1.2-2c-0.6-0.8-1.3-1.4-2.2-2c-0.3-0.2-0.7-0.5-1-0.6c-0.1-0.1-0.1-0.1,0,0
			c0.1,0.1,0.1,0.1-0.1-0.1c-0.2-0.5,0.2,0.4-0.1-0.1c-0.7-1.2-2.3-1.6-3.4-0.9C42.5,40.5,42.1,42,42.7,43.2L42.7,43.2z"/>
	</g>
</g>
</svg>
